<mxfile host="app.diagrams.net" agent="Mozilla/5.0 (Windows NT 10.0; Win64; x64) AppleWebKit/537.36 (KHTML, like Gecko) Chrome/138.0.0.0 Safari/537.36" version="27.2.0">
  <diagram name="Page-1" id="2-kdFgwVh1MZ08dabuDQ">
    <mxGraphModel dx="1281" dy="608" grid="1" gridSize="10" guides="1" tooltips="1" connect="1" arrows="1" fold="1" page="1" pageScale="1" pageWidth="850" pageHeight="1100" math="0" shadow="0">
      <root>
        <mxCell id="0" />
        <mxCell id="1" parent="0" />
        <mxCell id="dDX9eCg_y7_qkR6zyex2-1" value="STUDENTS" style="rounded=0;whiteSpace=wrap;html=1;" parent="1" vertex="1">
          <mxGeometry x="30" y="250" width="120" height="60" as="geometry" />
        </mxCell>
        <mxCell id="dDX9eCg_y7_qkR6zyex2-2" value="PARENTS/&lt;div&gt;GUARDIANS&lt;/div&gt;" style="rounded=0;whiteSpace=wrap;html=1;" parent="1" vertex="1">
          <mxGeometry x="710" y="250" width="120" height="60" as="geometry" />
        </mxCell>
        <mxCell id="dDX9eCg_y7_qkR6zyex2-3" value="ADMINS" style="rounded=0;whiteSpace=wrap;html=1;" parent="1" vertex="1">
          <mxGeometry x="30" y="430" width="120" height="60" as="geometry" />
        </mxCell>
        <mxCell id="dDX9eCg_y7_qkR6zyex2-4" value="EXAM BODY" style="rounded=0;whiteSpace=wrap;html=1;" parent="1" vertex="1">
          <mxGeometry x="710" y="440" width="120" height="60" as="geometry" />
        </mxCell>
        <mxCell id="dDX9eCg_y7_qkR6zyex2-5" value="EDUCATION&amp;nbsp;&lt;div&gt;BOARD&lt;/div&gt;" style="rounded=0;whiteSpace=wrap;html=1;" parent="1" vertex="1">
          <mxGeometry x="30" y="630" width="120" height="60" as="geometry" />
        </mxCell>
        <mxCell id="dDX9eCg_y7_qkR6zyex2-6" value="NOTIFICATION SYSTEM" style="rounded=0;whiteSpace=wrap;html=1;" parent="1" vertex="1">
          <mxGeometry x="700" y="640" width="120" height="60" as="geometry" />
        </mxCell>
        <mxCell id="dDX9eCg_y7_qkR6zyex2-16" value="PLACEMENT NOTIFICATION" style="edgeStyle=orthogonalEdgeStyle;rounded=0;orthogonalLoop=1;jettySize=auto;html=1;entryX=0.5;entryY=0;entryDx=0;entryDy=0;exitX=0.5;exitY=0;exitDx=0;exitDy=0;" parent="1" target="dDX9eCg_y7_qkR6zyex2-1" edge="1">
          <mxGeometry relative="1" as="geometry">
            <mxPoint x="445" y="200" as="sourcePoint" />
          </mxGeometry>
        </mxCell>
        <mxCell id="dDX9eCg_y7_qkR6zyex2-17" value="PLACEMENT STATUS" style="edgeStyle=orthogonalEdgeStyle;rounded=0;orthogonalLoop=1;jettySize=auto;html=1;entryX=0.5;entryY=0;entryDx=0;entryDy=0;exitX=0.54;exitY=-0.001;exitDx=0;exitDy=0;exitPerimeter=0;" parent="1" target="dDX9eCg_y7_qkR6zyex2-2" edge="1">
          <mxGeometry relative="1" as="geometry">
            <mxPoint x="454.20000000000005" y="199.44000000000005" as="sourcePoint" />
          </mxGeometry>
        </mxCell>
        <mxCell id="dDX9eCg_y7_qkR6zyex2-18" value="REPORTS &amp;amp; ANALYTICS" style="edgeStyle=orthogonalEdgeStyle;rounded=0;orthogonalLoop=1;jettySize=auto;html=1;entryX=0.5;entryY=0;entryDx=0;entryDy=0;exitX=0.079;exitY=0.771;exitDx=0;exitDy=0;exitPerimeter=0;" parent="1" source="hXi3zAvZ6b_B-A3cpsxD-2" target="dDX9eCg_y7_qkR6zyex2-5" edge="1">
          <mxGeometry relative="1" as="geometry">
            <mxPoint x="280" y="570" as="sourcePoint" />
          </mxGeometry>
        </mxCell>
        <mxCell id="dDX9eCg_y7_qkR6zyex2-19" value="SMS/EMAIL NOTIFICATION" style="edgeStyle=orthogonalEdgeStyle;rounded=0;orthogonalLoop=1;jettySize=auto;html=1;entryX=0.5;entryY=1;entryDx=0;entryDy=0;exitX=0.5;exitY=1;exitDx=0;exitDy=0;" parent="1" source="hXi3zAvZ6b_B-A3cpsxD-2" target="dDX9eCg_y7_qkR6zyex2-6" edge="1">
          <mxGeometry relative="1" as="geometry">
            <mxPoint x="445" y="760" as="sourcePoint" />
          </mxGeometry>
        </mxCell>
        <mxCell id="dDX9eCg_y7_qkR6zyex2-8" value="REGISTRATION&lt;div&gt;INFO,&lt;/div&gt;&lt;div&gt;SCHOOL CHOICES&lt;/div&gt;" style="edgeStyle=orthogonalEdgeStyle;rounded=0;orthogonalLoop=1;jettySize=auto;html=1;entryX=0.361;entryY=0.022;entryDx=0;entryDy=0;entryPerimeter=0;" parent="1" source="dDX9eCg_y7_qkR6zyex2-1" target="hXi3zAvZ6b_B-A3cpsxD-2" edge="1">
          <mxGeometry relative="1" as="geometry">
            <mxPoint x="330" y="280.64" as="targetPoint" />
          </mxGeometry>
        </mxCell>
        <mxCell id="dDX9eCg_y7_qkR6zyex2-9" value="PROGRAM UPDATES" style="edgeStyle=orthogonalEdgeStyle;rounded=0;orthogonalLoop=1;jettySize=auto;html=1;entryX=0;entryY=0.368;entryDx=0;entryDy=0;entryPerimeter=0;" parent="1" source="dDX9eCg_y7_qkR6zyex2-3" target="hXi3zAvZ6b_B-A3cpsxD-2" edge="1">
          <mxGeometry relative="1" as="geometry">
            <mxPoint x="328.6199999999999" y="470.48" as="targetPoint" />
          </mxGeometry>
        </mxCell>
        <mxCell id="dDX9eCg_y7_qkR6zyex2-10" value="POLICY OR&lt;div&gt;CRITERIA UPDATES&lt;/div&gt;" style="edgeStyle=orthogonalEdgeStyle;rounded=0;orthogonalLoop=1;jettySize=auto;html=1;entryX=0.413;entryY=0.999;entryDx=0;entryDy=0;entryPerimeter=0;" parent="1" source="dDX9eCg_y7_qkR6zyex2-5" target="hXi3zAvZ6b_B-A3cpsxD-2" edge="1">
          <mxGeometry relative="1" as="geometry">
            <mxPoint x="380" y="680" as="targetPoint" />
          </mxGeometry>
        </mxCell>
        <mxCell id="dDX9eCg_y7_qkR6zyex2-12" value="EXAM&amp;nbsp;&lt;div&gt;RESULTS&lt;/div&gt;" style="edgeStyle=orthogonalEdgeStyle;rounded=0;orthogonalLoop=1;jettySize=auto;html=1;entryX=1.004;entryY=0.42;entryDx=0;entryDy=0;entryPerimeter=0;" parent="1" source="dDX9eCg_y7_qkR6zyex2-4" target="hXi3zAvZ6b_B-A3cpsxD-2" edge="1">
          <mxGeometry x="0.229" y="11" relative="1" as="geometry">
            <mxPoint x="560.46" y="470.48" as="targetPoint" />
            <mxPoint as="offset" />
          </mxGeometry>
        </mxCell>
        <mxCell id="dDX9eCg_y7_qkR6zyex2-13" value="APPEAL PLACEMENT" style="edgeStyle=orthogonalEdgeStyle;rounded=0;orthogonalLoop=1;jettySize=auto;html=1;entryX=0.538;entryY=-0.012;entryDx=0;entryDy=0;entryPerimeter=0;" parent="1" source="dDX9eCg_y7_qkR6zyex2-2" target="hXi3zAvZ6b_B-A3cpsxD-2" edge="1">
          <mxGeometry relative="1" as="geometry">
            <mxPoint x="560.46" y="279.52" as="targetPoint" />
          </mxGeometry>
        </mxCell>
        <mxCell id="hXi3zAvZ6b_B-A3cpsxD-2" value="&#xa;&lt;span style=&quot;color: rgb(0, 0, 0); font-family: Helvetica; font-size: 28px; font-style: normal; font-variant-ligatures: normal; font-variant-caps: normal; font-weight: 400; letter-spacing: normal; orphans: 2; text-align: center; text-indent: 0px; text-transform: none; widows: 2; word-spacing: 0px; -webkit-text-stroke-width: 0px; white-space: normal; background-color: rgb(236, 236, 236); text-decoration-thickness: initial; text-decoration-style: initial; text-decoration-color: initial; display: inline !important; float: none;&quot;&gt;EDUPLACE PLACEMENT SYSTEM&lt;/span&gt;&#xa;&#xa;" style="ellipse;whiteSpace=wrap;html=1;aspect=fixed;" vertex="1" parent="1">
          <mxGeometry x="300" y="355" width="285" height="285" as="geometry" />
        </mxCell>
      </root>
    </mxGraphModel>
  </diagram>
</mxfile>
